<svg width="112" height="14" viewBox="0 0 112 14" fill="none" xmlns="http://www.w3.org/2000/svg">
<path d="M23.404 2.2C24.272 2.2 25.0233 2.34467 25.658 2.634C26.302 2.92333 26.7967 3.334 27.142 3.866C27.4873 4.398 27.66 5.028 27.66 5.756C27.66 6.47467 27.4873 7.10467 27.142 7.646C26.7967 8.178 26.302 8.58867 25.658 8.878C25.0233 9.158 24.272 9.298 23.404 9.298H21.43V12H19.162V2.2H23.404ZM23.278 7.45C23.9593 7.45 24.4773 7.30533 24.832 7.016C25.1867 6.71733 25.364 6.29733 25.364 5.756C25.364 5.20533 25.1867 4.78533 24.832 4.496C24.4773 4.19733 23.9593 4.048 23.278 4.048H21.43V7.45H23.278ZM31.2112 5.462C31.4725 5.098 31.8225 4.82267 32.2612 4.636C32.7092 4.44933 33.2225 4.356 33.8012 4.356V6.372C33.5585 6.35333 33.3952 6.344 33.3112 6.344C32.6859 6.344 32.1959 6.52133 31.8412 6.876C31.4865 7.22133 31.3092 7.744 31.3092 8.444V12H29.1252V4.468H31.2112V5.462ZM38.6154 12.112C37.8221 12.112 37.1081 11.9487 36.4734 11.622C35.8481 11.286 35.3581 10.824 35.0034 10.236C34.6488 9.648 34.4714 8.98067 34.4714 8.234C34.4714 7.48733 34.6488 6.82 35.0034 6.232C35.3581 5.644 35.8481 5.18667 36.4734 4.86C37.1081 4.524 37.8221 4.356 38.6154 4.356C39.4088 4.356 40.1181 4.524 40.7434 4.86C41.3688 5.18667 41.8588 5.644 42.2134 6.232C42.5681 6.82 42.7454 7.48733 42.7454 8.234C42.7454 8.98067 42.5681 9.648 42.2134 10.236C41.8588 10.824 41.3688 11.286 40.7434 11.622C40.1181 11.9487 39.4088 12.112 38.6154 12.112ZM38.6154 10.32C39.1754 10.32 39.6328 10.1333 39.9874 9.76C40.3514 9.37733 40.5334 8.86867 40.5334 8.234C40.5334 7.59933 40.3514 7.09533 39.9874 6.722C39.6328 6.33933 39.1754 6.148 38.6154 6.148C38.0554 6.148 37.5934 6.33933 37.2294 6.722C36.8654 7.09533 36.6834 7.59933 36.6834 8.234C36.6834 8.86867 36.8654 9.37733 37.2294 9.76C37.5934 10.1333 38.0554 10.32 38.6154 10.32ZM47.7893 12.112C46.9959 12.112 46.2819 11.9487 45.6473 11.622C45.0219 11.286 44.5319 10.824 44.1773 10.236C43.8226 9.648 43.6453 8.98067 43.6453 8.234C43.6453 7.48733 43.8226 6.82 44.1773 6.232C44.5319 5.644 45.0219 5.18667 45.6473 4.86C46.2819 4.524 46.9959 4.356 47.7893 4.356C48.5826 4.356 49.2919 4.524 49.9173 4.86C50.5426 5.18667 51.0326 5.644 51.3873 6.232C51.7419 6.82 51.9193 7.48733 51.9193 8.234C51.9193 8.98067 51.7419 9.648 51.3873 10.236C51.0326 10.824 50.5426 11.286 49.9173 11.622C49.2919 11.9487 48.5826 12.112 47.7893 12.112ZM47.7893 10.32C48.3493 10.32 48.8066 10.1333 49.1613 9.76C49.5253 9.37733 49.7073 8.86867 49.7073 8.234C49.7073 7.59933 49.5253 7.09533 49.1613 6.722C48.8066 6.33933 48.3493 6.148 47.7893 6.148C47.2293 6.148 46.7673 6.33933 46.4033 6.722C46.0393 7.09533 45.8573 7.59933 45.8573 8.234C45.8573 8.86867 46.0393 9.37733 46.4033 9.76C46.7673 10.1333 47.2293 10.32 47.7893 10.32ZM63.0251 4.356C63.9678 4.356 64.7144 4.636 65.2651 5.196C65.8251 5.74667 66.1051 6.57733 66.1051 7.688V12H63.9211V8.024C63.9211 7.42667 63.7951 6.98333 63.5431 6.694C63.3004 6.39533 62.9504 6.246 62.4931 6.246C61.9798 6.246 61.5738 6.414 61.2751 6.75C60.9764 7.07667 60.8271 7.56667 60.8271 8.22V12H58.6431V8.024C58.6431 6.83867 58.1671 6.246 57.2151 6.246C56.7111 6.246 56.3098 6.414 56.0111 6.75C55.7124 7.07667 55.5631 7.56667 55.5631 8.22V12H53.3791V4.468H55.4651V5.336C55.7451 5.01867 56.0858 4.776 56.4871 4.608C56.8978 4.44 57.3458 4.356 57.8311 4.356C58.3631 4.356 58.8438 4.46333 59.2731 4.678C59.7024 4.88333 60.0478 5.18667 60.3091 5.588C60.6171 5.196 61.0044 4.89267 61.4711 4.678C61.9471 4.46333 62.4651 4.356 63.0251 4.356Z" fill="black"/>
<circle cx="4" cy="6" r="4" fill="#839EFF"/>
<circle cx="7" cy="9" r="4" fill="#5B7FFF"/>
</svg>
