<svg width="20" height="17" viewBox="0 0 20 17" fill="none" xmlns="http://www.w3.org/2000/svg">
<path d="M15.1324 16.4118H4.63235C2.07807 16.4118 0 14.3337 0 11.7794V5.25552C0 2.70124 2.07807 0.623169 4.63235 0.623169H7.72059C8.147 0.623169 8.49265 0.96882 8.49265 1.39523C8.49265 1.82164 8.147 2.16729 7.72059 2.16729H4.63235C2.9295 2.16729 1.54412 3.55267 1.54412 5.25552V11.7794C1.54412 13.4823 2.9295 14.8677 4.63235 14.8677H15.1324C16.8352 14.8677 18.2206 13.4823 18.2206 11.7794V7.34008C18.2206 6.91367 18.5662 6.56802 18.9926 6.56802C19.4191 6.56802 19.7647 6.91367 19.7647 7.34008V11.7794C19.7647 14.3337 17.6866 16.4118 15.1324 16.4118ZM12.6925 10.0577L13.9801 9.07281C14.3188 8.81379 14.3833 8.3292 14.1243 7.99054C13.8652 7.65188 13.3807 7.58733 13.042 7.84636L11.7552 8.83058C10.6525 9.67162 9.11219 9.67166 8.00861 8.82988L4.32762 6.03071C3.98822 5.77257 3.50387 5.8385 3.24574 6.17794C2.98764 6.51734 3.05353 7.00173 3.39297 7.25982L7.07306 10.0583C7.89998 10.689 8.89095 11.0044 9.88208 11.0044C10.8734 11.0044 11.8649 10.6888 12.6925 10.0577Z" fill="black"/>
</svg>
