<svg width="622" height="823" viewBox="0 0 622 823" fill="none" xmlns="http://www.w3.org/2000/svg">
<rect x="6.10352e-05" width="622" height="823" rx="60" fill="#80C2FF"/>
<g style="mix-blend-mode:multiply" opacity="0.3">
<g style="mix-blend-mode:multiply" opacity="0.3">
<path d="M230.32 364.305H212.68V467.835H230.32V364.305Z" fill="#2D2D2D"/>
<path d="M230.32 364.305H212.68V467.835H230.32V364.305Z" stroke="#2D2D2D" stroke-width="8" stroke-linecap="round" stroke-linejoin="round"/>
</g>
<g style="mix-blend-mode:multiply" opacity="0.3">
<path d="M232.7 467.768H210.3V480.368H232.7V467.768Z" fill="#2D2D2D"/>
<path d="M232.7 467.768H210.3V480.368H232.7V467.768Z" stroke="#2D2D2D" stroke-width="8" stroke-linecap="round" stroke-linejoin="round"/>
</g>
<g style="mix-blend-mode:multiply" opacity="0.3">
<path d="M212.68 480.368H230.32V487.578C230.32 488.544 229.936 489.47 229.253 490.153C228.57 490.836 227.644 491.22 226.678 491.22H216.321C215.355 491.22 214.429 490.836 213.746 490.153C213.063 489.47 212.679 488.544 212.679 487.578V480.368H212.68Z" fill="#2D2D2D"/>
<path d="M212.68 480.368H230.32V487.578C230.32 488.544 229.936 489.47 229.253 490.153C228.57 490.836 227.644 491.22 226.678 491.22H216.321C215.355 491.22 214.429 490.836 213.746 490.153C213.063 489.47 212.679 488.544 212.679 487.578V480.368H212.68Z" stroke="#2D2D2D" stroke-width="8" stroke-linecap="round" stroke-linejoin="round"/>
</g>
<g style="mix-blend-mode:multiply" opacity="0.3">
<path d="M230.32 364.305H212.68L221.5 336.38L230.32 364.305Z" fill="#2D2D2D"/>
<path d="M230.32 364.305H212.68L221.5 336.38L230.32 364.305Z" stroke="#2D2D2D" stroke-width="8" stroke-linecap="round" stroke-linejoin="round"/>
</g>
</g>
<g style="mix-blend-mode:multiply" opacity="0.3">
<g style="mix-blend-mode:multiply" opacity="0.3">
<path d="M284.871 403.65H269.191V492.69H284.871V403.65Z" fill="#2D2D2D"/>
<path d="M284.871 403.65H269.191V492.69H284.871V403.65Z" stroke="#2D2D2D" stroke-width="8" stroke-linecap="round" stroke-linejoin="round"/>
</g>
<g style="mix-blend-mode:multiply" opacity="0.3">
<path d="M287.111 343.59H266.951V403.65H287.111V343.59Z" fill="#2D2D2D"/>
<path d="M287.111 343.59H266.951V403.65H287.111V343.59Z" stroke="#2D2D2D" stroke-width="8" stroke-linecap="round" stroke-linejoin="round"/>
</g>
<g style="mix-blend-mode:multiply" opacity="0.3">
<path d="M277.031 334.77C278.061 334.77 279.081 334.973 280.032 335.367C280.983 335.761 281.847 336.338 282.575 337.066C283.303 337.794 283.881 338.659 284.275 339.61C284.669 340.561 284.872 341.581 284.872 342.61V343.59H269.191V342.609C269.192 340.53 270.018 338.536 271.488 337.066C272.958 335.596 274.952 334.77 277.031 334.77Z" fill="#2D2D2D"/>
<path d="M277.031 334.77C278.061 334.77 279.081 334.973 280.032 335.367C280.983 335.761 281.847 336.338 282.575 337.066C283.303 337.794 283.881 338.659 284.275 339.61C284.669 340.561 284.872 341.581 284.872 342.61V343.59H269.191V342.609C269.192 340.53 270.018 338.536 271.488 337.066C272.958 335.596 274.952 334.77 277.031 334.77Z" stroke="#2D2D2D" stroke-width="8" stroke-linecap="round" stroke-linejoin="round"/>
</g>
<g style="mix-blend-mode:multiply" opacity="0.3">
<path d="M261.135 352.986V390.502" stroke="#2D2D2D" stroke-width="8" stroke-linecap="round" stroke-linejoin="round"/>
</g>
<g style="mix-blend-mode:multiply" opacity="0.3">
<path d="M266.95 359.059H261.135" stroke="#2D2D2D" stroke-width="8" stroke-linecap="round" stroke-linejoin="round"/>
</g>
<g style="mix-blend-mode:multiply" opacity="0.3">
<path d="M283.016 492.69C283.026 493.482 282.878 494.268 282.581 495.002C282.285 495.737 281.845 496.405 281.289 496.968C280.732 497.531 280.069 497.979 279.338 498.284C278.608 498.589 277.823 498.746 277.031 498.746C276.239 498.746 275.455 498.589 274.725 498.284C273.994 497.979 273.331 497.531 272.774 496.968C272.217 496.405 271.778 495.737 271.482 495.002C271.185 494.268 271.037 493.482 271.046 492.69H283.016Z" fill="#2D2D2D"/>
<path d="M283.016 492.69C283.026 493.482 282.878 494.268 282.581 495.002C282.285 495.737 281.845 496.405 281.289 496.968C280.732 497.531 280.069 497.979 279.338 498.284C278.608 498.589 277.823 498.746 277.031 498.746C276.239 498.746 275.455 498.589 274.725 498.284C273.994 497.979 273.331 497.531 272.774 496.968C272.217 496.405 271.778 495.737 271.482 495.002C271.185 494.268 271.037 493.482 271.046 492.69H283.016Z" stroke="#2D2D2D" stroke-width="8" stroke-linecap="round" stroke-linejoin="round"/>
</g>
</g>
<path d="M281.091 399.45H265.411V488.49H281.091V399.45Z" fill="#00B3C6"/>
<g style="mix-blend-mode:multiply" opacity="0.5">
<path d="M281.092 399.45H275.396V488.49H281.092V399.45Z" fill="#00B3C6"/>
</g>
<g style="mix-blend-mode:screen" opacity="0.35">
<path d="M271.046 399.45H265.411V488.49H271.046V399.45Z" fill="#00B3C6"/>
</g>
<path d="M281.092 490.17H265.411C264.966 490.17 264.538 489.993 264.223 489.678C263.908 489.363 263.731 488.936 263.731 488.49V399.45C263.731 399.004 263.908 398.577 264.223 398.262C264.538 397.947 264.966 397.77 265.411 397.77H281.092C281.537 397.77 281.964 397.947 282.28 398.262C282.595 398.577 282.772 399.004 282.772 399.45V488.49C282.772 488.711 282.728 488.929 282.644 489.133C282.559 489.337 282.436 489.522 282.28 489.678C282.124 489.834 281.938 489.958 281.734 490.042C281.531 490.127 281.312 490.17 281.092 490.17ZM267.091 486.81H279.412V401.13H267.091V486.81Z" fill="#330E00"/>
<path d="M283.331 339.39H263.171V399.45H283.331V339.39Z" fill="#565656"/>
<g style="mix-blend-mode:screen" opacity="0.27">
<path d="M269.191 339.39H263.171V399.45H269.191V339.39Z" fill="#565656"/>
</g>
<g style="mix-blend-mode:multiply" opacity="0.27">
<path d="M283.051 339.39H277.031V399.45H283.051V339.39Z" fill="#565656"/>
</g>
<path d="M283.331 401.13H263.171C262.726 401.13 262.299 400.953 261.983 400.638C261.668 400.323 261.491 399.896 261.491 399.45V339.39C261.491 338.944 261.668 338.517 261.983 338.202C262.299 337.887 262.726 337.71 263.171 337.71H283.331C283.777 337.71 284.204 337.887 284.519 338.202C284.834 338.517 285.011 338.944 285.011 339.39V399.45C285.011 399.896 284.834 400.323 284.519 400.638C284.204 400.953 283.777 401.13 283.331 401.13ZM264.851 397.77H281.651V341.07H264.851V397.77Z" fill="#330E00"/>
<path d="M273.251 330.57C275.331 330.57 277.325 331.396 278.795 332.866C280.266 334.337 281.092 336.331 281.092 338.41V339.39H265.411V338.409C265.412 336.33 266.238 334.336 267.708 332.866C269.178 331.396 271.172 330.57 273.251 330.57Z" fill="#00B3C6"/>
<path d="M281.092 341.07H265.411C264.966 341.07 264.538 340.893 264.223 340.578C263.908 340.263 263.731 339.836 263.731 339.39V338.409C263.731 335.884 264.734 333.463 266.52 331.678C268.305 329.892 270.727 328.889 273.251 328.889C275.776 328.889 278.198 329.892 279.983 331.678C281.769 333.463 282.772 335.884 282.772 338.409V339.39C282.772 339.611 282.728 339.829 282.644 340.033C282.559 340.237 282.436 340.422 282.28 340.578C282.124 340.734 281.938 340.858 281.734 340.942C281.531 341.027 281.312 341.07 281.092 341.07ZM267.13 337.71H279.372C279.201 336.207 278.482 334.819 277.353 333.812C276.224 332.804 274.764 332.248 273.251 332.248C271.738 332.248 270.278 332.804 269.149 333.812C268.02 334.819 267.302 336.207 267.13 337.71Z" fill="#330E00"/>
<path d="M257.355 387.984C256.91 387.984 256.482 387.807 256.167 387.492C255.852 387.177 255.675 386.75 255.675 386.304V348.786C255.675 348.341 255.852 347.913 256.167 347.598C256.482 347.283 256.91 347.106 257.355 347.106C257.801 347.106 258.228 347.283 258.543 347.598C258.858 347.913 259.035 348.341 259.035 348.786V386.304C259.035 386.75 258.858 387.177 258.543 387.492C258.228 387.807 257.801 387.984 257.355 387.984Z" fill="#330E00"/>
<path d="M263.17 356.54H257.355C256.91 356.54 256.482 356.363 256.167 356.048C255.852 355.733 255.675 355.305 255.675 354.86C255.675 354.414 255.852 353.987 256.167 353.672C256.482 353.357 256.91 353.18 257.355 353.18H263.17C263.616 353.18 264.043 353.357 264.358 353.672C264.673 353.987 264.85 354.414 264.85 354.86C264.85 355.305 264.673 355.733 264.358 356.048C264.043 356.363 263.616 356.54 263.17 356.54Z" fill="#330E00"/>
<path d="M279.236 488.49C279.246 489.282 279.098 490.068 278.801 490.802C278.505 491.537 278.065 492.205 277.509 492.768C276.952 493.331 276.289 493.779 275.558 494.084C274.828 494.389 274.043 494.546 273.251 494.546C272.459 494.546 271.675 494.389 270.945 494.084C270.214 493.779 269.551 493.331 268.994 492.768C268.437 492.205 267.998 491.537 267.702 490.802C267.405 490.068 267.257 489.282 267.266 488.49H279.236Z" fill="#565656"/>
<path d="M273.251 496.155C271.219 496.153 269.271 495.344 267.834 493.907C266.397 492.47 265.589 490.522 265.586 488.49C265.586 488.044 265.763 487.617 266.079 487.302C266.394 486.987 266.821 486.81 267.266 486.81H279.236C279.682 486.81 280.109 486.987 280.424 487.302C280.739 487.617 280.916 488.044 280.916 488.49C280.914 490.522 280.106 492.47 278.669 493.907C277.232 495.344 275.284 496.153 273.251 496.155ZM269.287 490.17C269.617 490.948 270.169 491.613 270.874 492.079C271.579 492.546 272.406 492.795 273.251 492.795C274.097 492.795 274.923 492.546 275.628 492.079C276.333 491.613 276.885 490.948 277.215 490.17H269.287Z" fill="#330E00"/>
<path d="M225.7 359.265H208.06V462.795H225.7V359.265Z" fill="#FF1F1F"/>
<path d="M225.699 464.475H208.059C207.614 464.475 207.187 464.298 206.872 463.983C206.556 463.668 206.379 463.241 206.379 462.795V359.265C206.379 358.82 206.556 358.392 206.872 358.077C207.187 357.762 207.614 357.585 208.059 357.585H225.699C226.145 357.585 226.572 357.762 226.887 358.077C227.202 358.392 227.379 358.82 227.379 359.265V462.795C227.379 463.241 227.202 463.668 226.887 463.983C226.572 464.298 226.145 464.475 225.699 464.475ZM209.739 461.115H224.019V360.945H209.739V461.115Z" fill="#330E00"/>
<path d="M219.955 464.475H213.805C213.36 464.475 212.932 464.298 212.617 463.983C212.302 463.668 212.125 463.241 212.125 462.795V359.265C212.125 358.82 212.302 358.392 212.617 358.077C212.932 357.762 213.36 357.585 213.805 357.585H219.955C220.4 357.585 220.828 357.762 221.143 358.077C221.458 358.392 221.635 358.82 221.635 359.265V462.795C221.635 463.241 221.458 463.668 221.143 463.983C220.828 464.298 220.4 464.475 219.955 464.475ZM215.485 461.115H218.275V360.945H215.485V461.115Z" fill="#330E00"/>
<path d="M228.08 462.728H205.68V475.328H228.08V462.728Z" fill="#FDD2A7"/>
<g style="mix-blend-mode:multiply" opacity="0.5">
<path d="M228.08 462.728H221.5V475.328H228.08V462.728Z" fill="#FDD2A7"/>
</g>
<g style="mix-blend-mode:screen">
<path d="M211.696 462.728H205.68V475.328H211.696V462.728Z" fill="#FDD2A7"/>
</g>
<path d="M228.08 477.008H205.68C205.234 477.008 204.807 476.831 204.492 476.516C204.177 476.2 204 475.773 204 475.328V462.728C204 462.282 204.177 461.855 204.492 461.54C204.807 461.225 205.234 461.048 205.68 461.048H228.08C228.525 461.048 228.952 461.225 229.268 461.54C229.583 461.855 229.76 462.282 229.76 462.728V475.328C229.76 475.548 229.716 475.767 229.632 475.971C229.547 476.174 229.424 476.36 229.268 476.516C229.112 476.672 228.926 476.795 228.723 476.88C228.519 476.964 228.3 477.008 228.08 477.008ZM207.36 473.648H226.4V464.408H207.36V473.648Z" fill="#330E00"/>
<path d="M208.06 475.328H225.7V482.538C225.7 483.504 225.316 484.43 224.633 485.113C223.95 485.796 223.024 486.18 222.058 486.18H211.701C210.735 486.18 209.809 485.796 209.126 485.113C208.443 484.43 208.059 483.504 208.059 482.538V475.328H208.06Z" fill="#3BABFF"/>
<path d="M222.058 487.86H211.701C210.29 487.858 208.938 487.297 207.94 486.299C206.942 485.302 206.381 483.949 206.379 482.538V475.328C206.379 474.882 206.556 474.455 206.872 474.14C207.187 473.825 207.614 473.648 208.059 473.648H225.699C226.145 473.648 226.572 473.825 226.887 474.14C227.202 474.455 227.379 474.882 227.379 475.328V482.538C227.378 483.949 226.817 485.302 225.819 486.299C224.821 487.297 223.469 487.858 222.058 487.86ZM209.739 477.008V482.538C209.74 483.058 209.947 483.557 210.315 483.925C210.683 484.292 211.181 484.499 211.701 484.5H222.058C222.578 484.499 223.077 484.292 223.444 483.925C223.812 483.557 224.019 483.058 224.019 482.538V477.008H209.739Z" fill="#330E00"/>
<path d="M225.7 359.265H208.06L216.88 331.34L225.7 359.265Z" fill="#FDD2A7"/>
<path d="M225.699 360.945H208.059C207.796 360.945 207.536 360.883 207.301 360.764C207.065 360.644 206.862 360.471 206.706 360.259C206.55 360.046 206.446 359.8 206.403 359.54C206.36 359.279 206.378 359.013 206.458 358.761L215.278 330.836C215.385 330.496 215.598 330.198 215.886 329.987C216.175 329.776 216.522 329.662 216.88 329.662C217.237 329.662 217.585 329.776 217.873 329.987C218.161 330.198 218.374 330.496 218.482 330.836L227.302 358.761C227.381 359.013 227.4 359.28 227.357 359.54C227.313 359.8 227.21 360.046 227.054 360.259C226.898 360.472 226.694 360.645 226.459 360.764C226.223 360.883 225.963 360.945 225.699 360.945ZM210.352 357.585H223.407L216.879 336.918L210.352 357.585Z" fill="#330E00"/>
<path d="M216.879 331.34L213.143 343.17H220.616L216.879 331.34Z" fill="#330E00"/>
<path d="M271.196 482.12C270.862 482.12 270.542 481.987 270.305 481.751C270.069 481.514 269.936 481.194 269.936 480.86V446.91C269.936 446.576 270.069 446.255 270.305 446.019C270.542 445.783 270.862 445.65 271.196 445.65C271.531 445.65 271.851 445.783 272.087 446.019C272.324 446.255 272.456 446.576 272.456 446.91V480.86C272.456 481.194 272.323 481.515 272.087 481.751C271.851 481.987 271.53 482.12 271.196 482.12Z" fill="#330E00"/>
<path d="M281.092 490.17H265.411C264.966 490.17 264.538 489.993 264.223 489.678C263.908 489.363 263.731 488.936 263.731 488.49V399.45C263.731 399.004 263.908 398.577 264.223 398.262C264.538 397.947 264.966 397.77 265.411 397.77H281.092C281.537 397.77 281.964 397.947 282.28 398.262C282.595 398.577 282.772 399.004 282.772 399.45V488.49C282.772 488.711 282.728 488.929 282.644 489.133C282.559 489.337 282.436 489.522 282.28 489.678C282.124 489.834 281.938 489.958 281.734 490.042C281.531 490.127 281.312 490.17 281.092 490.17ZM267.091 486.81H279.412V401.13H267.091V486.81Z" fill="#330E00"/>
<path d="M283.331 401.13H263.171C262.726 401.13 262.299 400.953 261.983 400.638C261.668 400.323 261.491 399.896 261.491 399.45V339.39C261.491 338.944 261.668 338.517 261.983 338.202C262.299 337.887 262.726 337.71 263.171 337.71H283.331C283.777 337.71 284.204 337.887 284.519 338.202C284.834 338.517 285.011 338.944 285.011 339.39V399.45C285.011 399.896 284.834 400.323 284.519 400.638C284.204 400.953 283.777 401.13 283.331 401.13ZM264.851 397.77H281.651V341.07H264.851V397.77Z" fill="#330E00"/>
<path d="M281.092 341.07H265.411C264.966 341.07 264.538 340.893 264.223 340.578C263.908 340.263 263.731 339.836 263.731 339.39V338.409C263.731 335.884 264.734 333.463 266.52 331.678C268.305 329.892 270.727 328.889 273.251 328.889C275.776 328.889 278.198 329.892 279.983 331.678C281.769 333.463 282.772 335.884 282.772 338.409V339.39C282.772 339.611 282.728 339.829 282.644 340.033C282.559 340.237 282.436 340.422 282.28 340.578C282.124 340.734 281.938 340.858 281.734 340.942C281.531 341.027 281.312 341.07 281.092 341.07ZM267.13 337.71H279.372C279.201 336.207 278.482 334.819 277.353 333.812C276.224 332.804 274.764 332.248 273.251 332.248C271.738 332.248 270.278 332.804 269.149 333.812C268.02 334.819 267.302 336.207 267.13 337.71Z" fill="#330E00"/>
<path d="M257.355 387.984C256.91 387.984 256.482 387.807 256.167 387.492C255.852 387.177 255.675 386.75 255.675 386.304V348.786C255.675 348.341 255.852 347.913 256.167 347.598C256.482 347.283 256.91 347.106 257.355 347.106C257.801 347.106 258.228 347.283 258.543 347.598C258.858 347.913 259.035 348.341 259.035 348.786V386.304C259.035 386.75 258.858 387.177 258.543 387.492C258.228 387.807 257.801 387.984 257.355 387.984Z" fill="#330E00"/>
<path d="M263.17 356.54H257.355C256.91 356.54 256.482 356.363 256.167 356.048C255.852 355.733 255.675 355.305 255.675 354.86C255.675 354.414 255.852 353.987 256.167 353.672C256.482 353.357 256.91 353.18 257.355 353.18H263.17C263.616 353.18 264.043 353.357 264.358 353.672C264.673 353.987 264.85 354.414 264.85 354.86C264.85 355.305 264.673 355.733 264.358 356.048C264.043 356.363 263.616 356.54 263.17 356.54Z" fill="#330E00"/>
<path d="M273.251 496.155C271.219 496.153 269.271 495.344 267.834 493.907C266.397 492.47 265.589 490.522 265.586 488.49C265.586 488.044 265.763 487.617 266.079 487.302C266.394 486.987 266.821 486.81 267.266 486.81H279.236C279.682 486.81 280.109 486.987 280.424 487.302C280.739 487.617 280.916 488.044 280.916 488.49C280.914 490.522 280.106 492.47 278.669 493.907C277.232 495.344 275.284 496.153 273.251 496.155ZM269.287 490.17C269.617 490.948 270.169 491.613 270.874 492.079C271.579 492.546 272.406 492.795 273.251 492.795C274.097 492.795 274.923 492.546 275.628 492.079C276.333 491.613 276.885 490.948 277.215 490.17H269.287Z" fill="#330E00"/>
<g style="mix-blend-mode:multiply" opacity="0.3">
<g style="mix-blend-mode:multiply" opacity="0.3">
<path d="M411.617 382.517L391.23 367.705C387.852 365.251 383.125 366 380.67 369.377L313.522 461.799C311.068 465.177 311.816 469.905 315.194 472.359L335.582 487.172C338.959 489.626 343.687 488.877 346.141 485.499L413.29 393.077C415.744 389.699 414.995 384.971 411.617 382.517Z" fill="#2D2D2D"/>
<path d="M411.617 382.517L391.23 367.705C387.852 365.251 383.125 366 380.67 369.377L313.522 461.799C311.068 465.177 311.816 469.905 315.194 472.359L335.582 487.172C338.959 489.626 343.687 488.877 346.141 485.499L413.29 393.077C415.744 389.699 414.995 384.971 411.617 382.517Z" stroke="#2D2D2D" stroke-width="8" stroke-linecap="round" stroke-linejoin="round"/>
</g>
<g style="mix-blend-mode:multiply" opacity="0.3">
<path d="M344.893 346.16H319.693C315.518 346.16 312.133 349.545 312.133 353.72V467.96C312.133 472.136 315.518 475.52 319.693 475.52H344.893C349.068 475.52 352.453 472.136 352.453 467.96V353.72C352.453 349.545 349.068 346.16 344.893 346.16Z" fill="#2D2D2D"/>
<path d="M344.893 346.16H319.693C315.518 346.16 312.133 349.545 312.133 353.72V467.96C312.133 472.136 315.518 475.52 319.693 475.52H344.893C349.068 475.52 352.453 472.136 352.453 467.96V353.72C352.453 349.545 349.068 346.16 344.893 346.16Z" stroke="#2D2D2D" stroke-width="8" stroke-linecap="round" stroke-linejoin="round"/>
</g>
<g style="mix-blend-mode:multiply" opacity="0.3">
<path d="M377.476 357.548L353.252 350.602C349.239 349.451 345.052 351.772 343.902 355.785L312.413 465.6C311.262 469.613 313.582 473.8 317.596 474.951L341.82 481.897C345.833 483.048 350.02 480.727 351.171 476.713L382.66 366.899C383.81 362.885 381.49 358.699 377.476 357.548Z" fill="#2D2D2D"/>
<path d="M377.476 357.548L353.252 350.602C349.239 349.451 345.052 351.772 343.902 355.785L312.413 465.6C311.262 469.613 313.582 473.8 317.596 474.951L341.82 481.897C345.833 483.048 350.02 480.727 351.171 476.713L382.66 366.899C383.81 362.885 381.49 358.699 377.476 357.548Z" stroke="#2D2D2D" stroke-width="8" stroke-linecap="round" stroke-linejoin="round"/>
</g>
</g>
<path d="M409.517 375.797L389.13 360.985C385.752 358.531 381.024 359.279 378.57 362.657L311.422 455.079C308.967 458.457 309.716 463.185 313.094 465.639L333.481 480.451C336.859 482.906 341.587 482.157 344.041 478.779L411.19 386.357C413.644 382.979 412.895 378.251 409.517 375.797Z" fill="white"/>
<path d="M337.913 483.572C335.966 483.573 334.069 482.957 332.495 481.811L312.108 466.998C310.127 465.557 308.799 463.388 308.415 460.968C308.031 458.549 308.623 456.076 310.06 454.092L377.211 361.67C378.653 359.69 380.822 358.362 383.241 357.979C385.661 357.596 388.134 358.188 390.117 359.626L410.505 374.438C412.485 375.88 413.812 378.049 414.196 380.468C414.579 382.888 413.987 385.36 412.549 387.344L345.4 479.766C344.542 480.947 343.416 481.908 342.114 482.569C340.813 483.231 339.373 483.574 337.913 483.572ZM334.469 479.092C335.094 479.546 335.802 479.872 336.553 480.053C337.304 480.233 338.083 480.263 338.845 480.142C339.608 480.021 340.34 479.751 340.998 479.348C341.656 478.944 342.229 478.415 342.682 477.79L409.83 385.369C410.745 384.107 411.122 382.533 410.878 380.993C410.634 379.454 409.789 378.074 408.528 377.156L388.141 362.344C386.878 361.429 385.305 361.053 383.765 361.297C382.226 361.541 380.846 362.386 379.928 363.646L312.781 456.066C311.866 457.328 311.489 458.902 311.733 460.442C311.977 461.981 312.822 463.361 314.083 464.279L334.47 479.091L334.469 479.092Z" fill="#330E00"/>
<path d="M366.752 449.198C366.397 449.198 366.052 449.086 365.765 448.878L333.146 425.178C332.967 425.049 332.816 424.885 332.701 424.697C332.586 424.509 332.508 424.3 332.474 424.082C332.439 423.864 332.448 423.641 332.5 423.427C332.551 423.212 332.645 423.01 332.774 422.831L377.21 361.67C378.652 359.689 380.821 358.362 383.241 357.979C385.661 357.596 388.133 358.188 390.117 359.626L410.505 374.438C412.485 375.88 413.812 378.049 414.195 380.468C414.578 382.888 413.986 385.36 412.549 387.344L368.112 448.506C367.956 448.721 367.752 448.895 367.515 449.015C367.279 449.136 367.017 449.198 366.752 449.198ZM336.478 423.448L366.382 445.172L409.831 385.369C410.746 384.107 411.123 382.533 410.879 380.993C410.634 379.454 409.79 378.074 408.529 377.156L388.142 362.344C386.88 361.429 385.306 361.053 383.767 361.297C382.227 361.541 380.847 362.386 379.929 363.646L336.478 423.448Z" fill="#330E00"/>
<path d="M389.13 360.985L409.517 375.797C411.139 376.976 412.227 378.75 412.54 380.731C412.854 382.711 412.368 384.735 411.19 386.357L399.34 402.667L366.72 378.967L378.57 362.657C379.749 361.035 381.523 359.948 383.504 359.634C385.484 359.32 387.508 359.806 389.13 360.985Z" fill="#8C6239"/>
<path d="M399.339 404.347C398.984 404.347 398.639 404.234 398.352 404.025L365.733 380.326C365.372 380.064 365.13 379.67 365.061 379.23C364.991 378.79 365.099 378.34 365.361 377.98L377.211 361.67C378.653 359.69 380.822 358.362 383.241 357.979C385.661 357.596 388.134 358.188 390.117 359.626L410.505 374.438C412.485 375.88 413.812 378.049 414.196 380.468C414.579 382.888 413.987 385.36 412.549 387.344L400.699 403.654C400.543 403.869 400.339 404.043 400.102 404.164C399.866 404.284 399.604 404.347 399.339 404.347ZM369.066 378.595L398.968 400.32L409.83 385.368C410.745 384.105 411.122 382.532 410.878 380.992C410.634 379.452 409.789 378.072 408.528 377.155L388.141 362.343C386.878 361.428 385.305 361.052 383.765 361.296C382.226 361.54 380.846 362.385 379.928 363.645L369.066 378.595Z" fill="#330E00"/>
<path d="M383.046 425.092L350.427 401.393L334.134 423.819L366.753 447.518L383.046 425.092Z" fill="#42210B"/>
<path d="M399.34 402.667L366.72 378.967L350.427 401.393L383.046 425.092L399.34 402.667Z" fill="#603813"/>
<path d="M383.047 426.773C382.692 426.773 382.346 426.66 382.059 426.452L349.439 402.752C349.079 402.49 348.837 402.096 348.767 401.656C348.697 401.216 348.805 400.766 349.067 400.406L365.361 377.98C365.49 377.801 365.654 377.65 365.842 377.535C366.03 377.419 366.239 377.342 366.457 377.308C366.675 377.273 366.898 377.282 367.112 377.333C367.327 377.385 367.529 377.478 367.708 377.608L400.327 401.307C400.688 401.569 400.93 401.964 400.999 402.404C401.069 402.844 400.961 403.293 400.699 403.654L384.406 426.082C384.144 426.442 383.75 426.684 383.31 426.754C383.222 426.767 383.135 426.773 383.047 426.773ZM352.774 401.021L382.676 422.746L396.995 403.038L367.093 381.314L352.774 401.021Z" fill="#330E00"/>
<path d="M366.752 449.198C366.397 449.198 366.052 449.086 365.765 448.878L333.146 425.178C332.967 425.049 332.816 424.885 332.701 424.697C332.586 424.509 332.508 424.3 332.474 424.082C332.439 423.864 332.448 423.641 332.5 423.427C332.551 423.212 332.645 423.01 332.774 422.831L349.067 400.405C349.197 400.227 349.361 400.076 349.549 399.96C349.737 399.845 349.946 399.768 350.164 399.733C350.382 399.699 350.604 399.708 350.819 399.759C351.033 399.811 351.236 399.904 351.414 400.034L384.034 423.733C384.213 423.863 384.364 424.026 384.479 424.215C384.594 424.403 384.671 424.612 384.706 424.83C384.741 425.048 384.732 425.27 384.68 425.485C384.629 425.699 384.535 425.902 384.406 426.08L368.112 448.506C367.956 448.721 367.752 448.895 367.515 449.015C367.279 449.136 367.017 449.198 366.752 449.198ZM336.478 423.448L366.382 445.172L380.701 425.464L350.8 403.739L336.478 423.448Z" fill="#330E00"/>
<path d="M320.577 464.179C319.446 464.177 318.347 463.794 317.46 463.092C316.572 462.39 315.946 461.409 315.684 460.309C315.421 459.208 315.536 458.05 316.011 457.023C316.487 455.996 317.294 455.158 318.303 454.646C319.312 454.133 320.464 453.975 321.574 454.196C322.684 454.418 323.687 455.007 324.421 455.868C325.155 456.73 325.578 457.813 325.622 458.944C325.666 460.075 325.328 461.188 324.662 462.103C324.194 462.747 323.579 463.271 322.869 463.632C322.159 463.993 321.374 464.18 320.577 464.179ZM320.588 457.462C320.499 457.462 320.41 457.469 320.321 457.483C319.894 457.551 319.51 457.782 319.25 458.127C318.989 458.472 318.872 458.904 318.924 459.333C318.975 459.763 319.19 460.155 319.524 460.43C319.859 460.704 320.286 460.838 320.717 460.804C321.148 460.77 321.549 460.571 321.836 460.248C322.124 459.924 322.275 459.503 322.258 459.071C322.241 458.639 322.058 458.23 321.747 457.93C321.436 457.63 321.02 457.462 320.588 457.462Z" fill="#330E00"/>
<g style="mix-blend-mode:overlay" opacity="0.3">
<path d="M378.316 352.508L354.093 345.564C353.138 345.29 352.139 345.207 351.153 345.32C350.166 345.432 349.212 345.738 348.343 346.219C347.475 346.7 346.71 347.348 346.092 348.125C345.474 348.902 345.015 349.793 344.741 350.747L313.252 460.56C312.7 462.487 312.935 464.555 313.907 466.309C314.879 468.063 316.508 469.358 318.435 469.911L340.531 468.645C340.726 468.701 342.597 468.761 342.793 468.801H344.801L348.027 468.453C349.706 468.272 351.292 467.593 352.581 466.503C353.87 465.412 354.803 463.961 355.26 462.335L383.499 361.86C383.773 360.906 383.856 359.907 383.744 358.92C383.632 357.934 383.326 356.979 382.845 356.11C382.364 355.242 381.716 354.477 380.939 353.859C380.162 353.241 379.271 352.782 378.316 352.508Z" fill="#2D2D2D"/>
<path d="M378.316 352.508L354.093 345.564C353.138 345.29 352.139 345.207 351.153 345.32C350.166 345.432 349.212 345.738 348.343 346.219C347.475 346.7 346.71 347.348 346.092 348.125C345.474 348.902 345.015 349.793 344.741 350.747L313.252 460.56C312.7 462.487 312.935 464.555 313.907 466.309C314.879 468.063 316.508 469.358 318.435 469.911L340.531 468.645C340.726 468.701 342.597 468.761 342.793 468.801H344.801L348.027 468.453C349.706 468.272 351.292 467.593 352.581 466.503C353.87 465.412 354.803 463.961 355.26 462.335L383.499 361.86C383.773 360.906 383.856 359.907 383.744 358.92C383.632 357.934 383.326 356.979 382.845 356.11C382.364 355.242 381.716 354.477 380.939 353.859C380.162 353.241 379.271 352.782 378.316 352.508Z" stroke="#2D2D2D" stroke-width="8" stroke-linecap="round" stroke-linejoin="round"/>
</g>
<path d="M375.376 350.828L351.152 343.882C347.139 342.731 342.952 345.051 341.801 349.065L310.313 458.88C309.162 462.893 311.482 467.08 315.496 468.231L339.72 475.177C343.733 476.327 347.92 474.007 349.071 469.993L380.56 360.179C381.71 356.165 379.39 351.979 375.376 350.828Z" fill="white"/>
<path d="M341.817 477.154C340.951 477.153 340.088 477.031 339.255 476.791L315.033 469.845C312.678 469.17 310.687 467.587 309.499 465.444C308.311 463.301 308.023 460.773 308.698 458.418L340.187 348.602C340.862 346.247 342.446 344.256 344.589 343.068C346.732 341.88 349.26 341.592 351.615 342.267L375.839 349.213C377.005 349.547 378.095 350.108 379.044 350.864C379.994 351.619 380.785 352.554 381.374 353.615C381.962 354.677 382.335 355.843 382.473 357.049C382.61 358.255 382.509 359.476 382.174 360.642L350.686 470.456C350.132 472.382 348.968 474.077 347.369 475.284C345.77 476.492 343.821 477.148 341.817 477.154ZM349.06 345.266C347.785 345.27 346.545 345.687 345.527 346.456C344.509 347.224 343.769 348.303 343.416 349.528L311.928 459.342C311.715 460.084 311.65 460.861 311.738 461.629C311.825 462.396 312.063 463.138 312.437 463.814C312.812 464.489 313.315 465.084 313.92 465.565C314.524 466.045 315.217 466.402 315.96 466.615L340.183 473.561C340.926 473.774 341.703 473.838 342.47 473.751C343.237 473.663 343.98 473.426 344.655 473.051C345.33 472.677 345.925 472.173 346.406 471.569C346.887 470.964 347.243 470.271 347.456 469.529L378.945 359.718C379.158 358.976 379.222 358.199 379.135 357.431C379.047 356.664 378.81 355.922 378.435 355.246C378.061 354.571 377.557 353.976 376.953 353.495C376.348 353.015 375.655 352.658 374.913 352.445L350.689 345.497C350.16 345.344 349.611 345.267 349.06 345.266Z" fill="#330E00"/>
<path d="M351.017 343.958L375.234 350.913C377.161 351.466 378.789 352.762 379.76 354.516C380.732 356.27 380.966 358.338 380.413 360.264L374.849 379.638L336.101 368.51L341.665 349.136C342.219 347.209 343.515 345.581 345.269 344.61C347.023 343.639 349.09 343.404 351.017 343.958Z" fill="#BD3F3A"/>
<path d="M359.722 434.531C359.566 434.53 359.41 434.508 359.26 434.465L320.502 423.351C320.074 423.229 319.712 422.941 319.496 422.551C319.279 422.161 319.227 421.702 319.35 421.274L340.187 348.602C340.862 346.247 342.446 344.256 344.589 343.068C346.732 341.88 349.26 341.592 351.615 342.267L375.839 349.213C377.005 349.547 378.095 350.108 379.044 350.864C379.994 351.619 380.785 352.554 381.374 353.615C381.962 354.677 382.335 355.843 382.473 357.049C382.61 358.255 382.509 359.476 382.174 360.642L361.336 433.313C361.235 433.664 361.024 433.972 360.732 434.192C360.441 434.411 360.087 434.53 359.722 434.531ZM323.041 420.587L358.57 430.772L378.945 359.718C379.158 358.976 379.222 358.199 379.135 357.431C379.047 356.664 378.81 355.922 378.435 355.246C378.061 354.571 377.557 353.976 376.953 353.495C376.348 353.015 375.655 352.658 374.913 352.445L350.689 345.497C349.947 345.284 349.17 345.219 348.403 345.307C347.636 345.394 346.893 345.632 346.218 346.006C345.542 346.381 344.947 346.885 344.467 347.489C343.986 348.093 343.629 348.786 343.416 349.529L323.041 420.587Z" fill="#330E00"/>
<path d="M374.851 379.636L336.103 368.508L328.453 395.147L367.2 406.275L374.851 379.636Z" fill="#A33500"/>
<path d="M367.363 407.884C367.206 407.884 367.05 407.862 366.899 407.819L328.141 396.705C327.929 396.644 327.731 396.542 327.558 396.405C327.385 396.268 327.242 396.098 327.135 395.905C327.028 395.712 326.96 395.5 326.935 395.28C326.91 395.061 326.928 394.839 326.989 394.627L334.63 367.981C334.753 367.553 335.041 367.191 335.431 366.975C335.82 366.759 336.28 366.706 336.708 366.829L375.466 377.943C375.679 378.003 375.877 378.106 376.049 378.243C376.222 378.38 376.366 378.55 376.473 378.743C376.58 378.936 376.647 379.148 376.672 379.368C376.697 379.587 376.679 379.809 376.618 380.021L368.977 406.667C368.877 407.018 368.665 407.326 368.374 407.546C368.083 407.766 367.728 407.884 367.363 407.884ZM330.682 393.94L366.21 404.128L372.925 380.712L337.396 370.524L330.682 393.94Z" fill="#330E00"/>
<path d="M367.362 406.204L328.604 395.09L320.963 421.736L359.721 432.85L367.362 406.204Z" fill="#6D2300"/>
<path d="M359.722 434.531C359.566 434.531 359.41 434.508 359.26 434.465L320.502 423.351C320.074 423.229 319.712 422.941 319.496 422.551C319.279 422.161 319.227 421.702 319.35 421.274L326.991 394.627C327.114 394.199 327.401 393.837 327.791 393.621C328.181 393.405 328.64 393.352 329.069 393.475L367.827 404.589C368.039 404.65 368.237 404.752 368.41 404.889C368.582 405.027 368.726 405.197 368.833 405.39C368.94 405.583 369.008 405.795 369.033 406.014C369.058 406.233 369.04 406.455 368.979 406.667L361.338 433.313C361.237 433.664 361.025 433.973 360.734 434.192C360.442 434.412 360.087 434.531 359.722 434.531ZM323.041 420.586L358.57 430.772L365.285 407.356L329.757 397.168L323.041 420.586Z" fill="#330E00"/>
<path d="M320.319 464.605C319.201 464.607 318.114 464.237 317.228 463.554C316.343 462.871 315.711 461.912 315.43 460.83C315.149 459.747 315.236 458.602 315.678 457.575C316.119 456.547 316.89 455.696 317.868 455.155C318.541 454.782 319.29 454.569 320.058 454.531C320.826 454.493 321.592 454.631 322.298 454.934C323.005 455.238 323.632 455.699 324.133 456.282C324.633 456.865 324.994 457.555 325.187 458.299C325.38 459.044 325.4 459.822 325.246 460.575C325.092 461.328 324.768 462.036 324.298 462.645C323.828 463.253 323.225 463.746 322.536 464.086C321.846 464.425 321.088 464.603 320.319 464.605ZM320.31 457.882C319.884 457.882 319.474 458.043 319.162 458.334C318.851 458.624 318.661 459.022 318.631 459.447C318.602 459.872 318.734 460.292 319.002 460.623C319.27 460.954 319.654 461.171 320.075 461.23C320.497 461.29 320.926 461.187 321.274 460.943C321.623 460.699 321.867 460.331 321.956 459.915C322.044 459.498 321.972 459.064 321.753 458.698C321.534 458.333 321.184 458.065 320.775 457.947C320.623 457.904 320.466 457.882 320.308 457.882H320.31Z" fill="#330E00"/>
<g style="mix-blend-mode:overlay" opacity="0.3">
<path d="M346.153 341.12H320.953C316.778 341.12 313.393 344.505 313.393 348.68V462.92C313.393 467.096 316.778 470.48 320.953 470.48H346.153C350.328 470.48 353.713 467.096 353.713 462.92V348.68C353.713 344.505 350.328 341.12 346.153 341.12Z" fill="#2D2D2D"/>
<path d="M346.153 341.12H320.953C316.778 341.12 313.393 344.505 313.393 348.68V462.92C313.393 467.096 316.778 470.48 320.953 470.48H346.153C350.328 470.48 353.713 467.096 353.713 462.92V348.68C353.713 344.505 350.328 341.12 346.153 341.12Z" stroke="#2D2D2D" stroke-width="8" stroke-linecap="round" stroke-linejoin="round"/>
</g>
<path d="M342.793 339.44H317.593C313.418 339.44 310.033 342.825 310.033 347V461.24C310.033 465.416 313.418 468.8 317.593 468.8H342.793C346.968 468.8 350.353 465.416 350.353 461.24V347C350.353 342.825 346.968 339.44 342.793 339.44Z" fill="white"/>
<path d="M342.793 470.48H317.593C315.143 470.478 312.795 469.503 311.062 467.771C309.33 466.039 308.356 463.69 308.353 461.24V347C308.356 344.551 309.33 342.202 311.062 340.47C312.795 338.738 315.143 337.763 317.593 337.76H342.793C345.243 337.763 347.591 338.738 349.324 340.47C351.056 342.202 352.03 344.551 352.033 347V461.24C352.03 463.69 351.056 466.039 349.324 467.771C347.591 469.503 345.243 470.478 342.793 470.48ZM317.593 341.12C316.034 341.122 314.539 341.742 313.437 342.844C312.335 343.947 311.715 345.441 311.713 347V461.24C311.715 462.799 312.335 464.294 313.437 465.396C314.539 466.499 316.034 467.119 317.593 467.12H342.793C344.352 467.119 345.846 466.499 346.949 465.396C348.051 464.294 348.671 462.799 348.673 461.24V347C348.671 345.441 348.051 343.947 346.949 342.845C345.846 341.742 344.352 341.122 342.793 341.12H317.593Z" fill="#330E00"/>
<path d="M350.353 424.28H310.033C309.587 424.28 309.16 424.103 308.845 423.788C308.53 423.473 308.353 423.046 308.353 422.6V347C308.356 344.551 309.33 342.202 311.062 340.47C312.795 338.738 315.143 337.763 317.593 337.76H342.793C345.243 337.763 347.591 338.738 349.324 340.47C351.056 342.202 352.03 344.551 352.033 347V422.6C352.033 423.046 351.856 423.473 351.541 423.788C351.226 424.103 350.799 424.28 350.353 424.28ZM311.713 420.92H348.673V347C348.671 345.441 348.051 343.947 346.949 342.845C345.846 341.742 344.352 341.122 342.793 341.12H317.593C316.034 341.122 314.539 341.742 313.437 342.844C312.335 343.947 311.715 345.441 311.713 347V420.92Z" fill="#330E00"/>
<path d="M317.593 339.44H342.793C344.798 339.44 346.721 340.237 348.139 341.655C349.556 343.072 350.353 344.995 350.353 347V367.16H310.033V347C310.033 344.995 310.829 343.072 312.247 341.655C313.665 340.237 315.588 339.44 317.593 339.44Z" fill="#FF9999"/>
<path d="M350.353 368.841H310.033C309.587 368.841 309.16 368.664 308.845 368.349C308.53 368.034 308.353 367.606 308.353 367.161V347.001C308.356 344.551 309.33 342.202 311.062 340.47C312.795 338.738 315.143 337.764 317.593 337.761H342.793C345.243 337.764 347.591 338.738 349.324 340.47C351.056 342.202 352.03 344.551 352.033 347.001V367.161C352.033 367.606 351.856 368.034 351.541 368.349C351.226 368.664 350.799 368.841 350.353 368.841ZM311.713 365.481H348.673V347.001C348.671 345.442 348.051 343.947 346.949 342.845C345.846 341.743 344.352 341.123 342.793 341.121H317.593C316.034 341.122 314.539 341.743 313.437 342.845C312.335 343.947 311.715 345.442 311.713 347.001V365.481Z" fill="#330E00"/>
<path d="M350.353 367.16H310.033V394.88H350.353V367.16Z" fill="#FF0000"/>
<path d="M350.353 367.16H310.033V394.88H350.353V367.16Z" fill="#FF3333" stroke="#330E00" stroke-width="8" stroke-linecap="round" stroke-linejoin="round"/>
<path d="M350.353 394.88H310.033V422.6H350.353V394.88Z" fill="#BF0000"/>
<path d="M350.353 424.28H310.033C309.587 424.28 309.16 424.103 308.845 423.788C308.53 423.473 308.353 423.046 308.353 422.6V394.88C308.353 394.435 308.53 394.007 308.845 393.692C309.16 393.377 309.587 393.2 310.033 393.2H350.353C350.799 393.2 351.226 393.377 351.541 393.692C351.856 394.007 352.033 394.435 352.033 394.88V422.6C352.033 423.046 351.856 423.473 351.541 423.788C351.226 424.103 350.799 424.28 350.353 424.28ZM311.713 420.92H348.673V396.56H311.713V420.92Z" fill="#330E00"/>
<path d="M319.833 464.18C318.836 464.18 317.862 463.885 317.033 463.331C316.204 462.777 315.558 461.99 315.177 461.069C314.795 460.148 314.696 459.135 314.89 458.157C315.085 457.179 315.565 456.281 316.269 455.577C316.974 454.872 317.872 454.392 318.85 454.197C319.828 454.003 320.841 454.103 321.762 454.484C322.683 454.865 323.47 455.511 324.024 456.34C324.578 457.169 324.873 458.144 324.873 459.14C324.872 460.477 324.34 461.758 323.395 462.703C322.451 463.647 321.169 464.179 319.833 464.18ZM319.833 457.46C319.501 457.46 319.176 457.559 318.9 457.744C318.624 457.928 318.408 458.191 318.281 458.497C318.154 458.804 318.121 459.142 318.186 459.468C318.25 459.794 318.41 460.093 318.645 460.328C318.88 460.563 319.18 460.723 319.505 460.788C319.831 460.853 320.169 460.82 320.476 460.692C320.783 460.565 321.045 460.35 321.23 460.074C321.415 459.797 321.513 459.473 321.513 459.14C321.513 458.695 321.336 458.268 321.021 457.952C320.706 457.637 320.279 457.46 319.833 457.46Z" fill="#330E00"/>
<rect x="299" y="773" width="24" height="13" rx="6.5" fill="white"/>
<circle opacity="0.5" cx="282.5" cy="779.5" r="6.5" fill="white"/>
<circle opacity="0.5" cx="339.5" cy="779.5" r="6.5" fill="white"/>
</svg>
